<svg xmlns="http://www.w3.org/2000/svg" width="69.828" height="69.827" viewBox="0 0 69.828 69.827">
  <g id="Group_4" data-name="Group 4" transform="translate(-982.591 -1000.599)">
    <path id="Path_8" data-name="Path 8" d="M1018.182,1041.363a36.826,36.826,0,0,0,5.247-4.137l-.474-2.442a17.6,17.6,0,0,0,1.605-4.531l.02.01c.544.121,1.252-1,1.584-2.493s.161-2.785-.363-2.926c.131-.757.222-1.464.293-2.129a12.567,12.567,0,0,0-.122-4.349c-1.594-5.712-12.371-9.355-15.136-2.332-.726.071-1.474,1.3-1.755,2.2a11.9,11.9,0,0,0-.163,4.481c.071.665.173,1.372.293,2.129-.525.141-.687,1.443-.363,2.926s1.039,2.614,1.584,2.493l.021-.01a17.64,17.64,0,0,0,1.6,4.531l-.473,2.442a36.711,36.711,0,0,0,5.247,4.137,5.067,5.067,0,0,0-1.514,1.877,5.788,5.788,0,0,1,1.271,2c-1.169,1.252-2.118,6.65-2.21,8.366l-3.45-11.705a19.455,19.455,0,0,1-.464-4.2l-4.278,1.8a9.9,9.9,0,0,0-.808,2.785l-.01.01a.924.924,0,0,1,.725.777,5.342,5.342,0,0,1,3.119,3.1c.081.182.212.555-.04.656a18.923,18.923,0,0,1,1.221,6.3,1.748,1.748,0,0,1-1.685,1.827h-.283a.609.609,0,0,1-.465.221h-.908a.6.6,0,1,1,0-1.21h.908a.606.606,0,0,1,.465.222h.283c.625,0,.878-.556.918-1.111a18.28,18.28,0,0,0-1.18-6c-.273.061-.394-.232-.486-.444a3.044,3.044,0,0,0-5.943,0c-.091.212-.212.505-.484.444a18.241,18.241,0,0,0-1.171,6c.032.555.283,1.111.908,1.111h.283a.622.622,0,0,1,.464-.222h.919a.605.605,0,0,1,0,1.21h-.919a.625.625,0,0,1-.464-.221h-.283a1.732,1.732,0,0,1-1.674-1.827,18.637,18.637,0,0,1,1.211-6.3c-.253-.1-.111-.474-.04-.656a5.336,5.336,0,0,1,3.117-3.1.927.927,0,0,1,.717-.777c0-.03.011-.07.011-.111a10.142,10.142,0,0,1,.574-2.26l-3.209,1.351a8.292,8.292,0,0,0-4.612,5.642l-.827,3.966c-.495,2.4-1.383,3.693,1.262,5.106,3.582,1.906,11.644,2.866,19.707,2.866s16.125-.96,19.707-2.866c2.645-1.413,1.756-2.7,1.262-5.106l-.827-3.966a8.292,8.292,0,0,0-4.612-5.642l-3.834-1.614a7.015,7.015,0,0,1,.959,4.481.886.886,0,0,1,.424.7,2.324,2.324,0,1,1-1.848-.475.98.98,0,0,1,.677-.382,6.548,6.548,0,0,0-1.514-4.874l-3.34-1.4a19.594,19.594,0,0,1-.474,4.2l-3.452,11.705c-.08-1.716-1.029-7.114-2.21-8.366a5.956,5.956,0,0,1,1.272-2,4.952,4.952,0,0,0-1.514-1.877m10.949,3.834a1.443,1.443,0,1,1-1.443,1.444,1.443,1.443,0,0,1,1.443-1.444" fill-rule="evenodd"/>
    <path id="Path_9" data-name="Path 9" d="M1051.508,1035.513a34,34,0,1,1-34-34A34,34,0,0,1,1051.508,1035.513Z" fill="none" stroke="#000" stroke-miterlimit="10" stroke-width="1.823"/>
  </g>
</svg>
