<svg xmlns="http://www.w3.org/2000/svg" width="73.827" height="73.827" viewBox="0 0 73.827 73.827">
  <g id="Group_2" data-name="Group 2" transform="translate(-449.029 -998.58)">
    <path id="Path_1" data-name="Path 1" d="M468.167,1038.823a15.145,15.145,0,0,0,6.814,12.649.3.3,0,0,1-.165.548h-1.741a4.56,4.56,0,0,0-4.545,4.256H499.2a4.561,4.561,0,0,0-4.546-4.256h-2.825a.3.3,0,0,1-.163-.548,15.336,15.336,0,0,0,5.416-6.3h-5a10.8,10.8,0,0,1-8.758,4.467q-.228,0-.456-.009a10.817,10.817,0,0,1,.458-21.623c.065,0,.129,0,.192,0a4.542,4.542,0,0,1,.244-4.34c-.145,0-.29-.007-.436-.007a15.177,15.177,0,0,0-15.16,15.16"/>
    <path id="Path_2" data-name="Path 2" d="M492.125,1044.573h11.593v-2.508H486.066v2.508h6.058Z"/>
    <path id="Path_3" data-name="Path 3" d="M484.148,1023.088l.016.031.025-.029a4.55,4.55,0,1,1,3.935,7.5l2.121,4,6.863-3.638-7.736-14.591L482.509,1020Z"/>
    <rect id="Rectangle_1" data-name="Rectangle 1" width="4.208" height="2.209" transform="translate(492.098 1034.282) rotate(-27.932)"/>
    <path id="Path_4" data-name="Path 4" d="M487.48,1030.012c.051,0,.1,0,.152,0s.124,0,.186,0a4.027,4.027,0,0,0,.554-.066,4.127,4.127,0,0,0,.416-.1c.121-.037.239-.08.355-.128a4.232,4.232,0,0,0,.449-.221,3.957,3.957,0,0,0,1.994-3.431,4.116,4.116,0,0,0-.025-.447c-.008-.062-.016-.124-.026-.185a3.951,3.951,0,0,0-6.573-2.281c-.1.087-.185.179-.272.275s-.151.176-.221.269l-.009.013c-.064.086-.124.175-.182.266s-.12.2-.173.31a3.93,3.93,0,0,0,.11,3.761,3.773,3.773,0,0,0,.206.319,3.941,3.941,0,0,0,2.705,1.618c.116.016.235.026.354.031"/>
    <circle id="Ellipse_1" data-name="Ellipse 1" cx="36.002" cy="36.002" r="36.002" transform="translate(449.94 1071.495) rotate(-90)" fill="none" stroke="#000" stroke-miterlimit="10" stroke-width="1.823"/>
  </g>
</svg>
