<svg xmlns="http://www.w3.org/2000/svg" width="95.229" height="49.437" viewBox="0 0 95.229 49.437">
  <g id="Group_14" data-name="Group 14" transform="translate(-527.248 -3528.94)">
    <g id="Group_13" data-name="Group 13">
      <path id="Path_50" data-name="Path 50" d="M594.438,3558.671a24.3,24.3,0,0,0-7.631-7.058c-.26-.149-.4-.138-.6.1a9.275,9.275,0,0,1-.95.982,15.41,15.41,0,0,1-13.217,4.12,15.226,15.226,0,0,1-9.357-5.107c-.2-.224-.346-.261-.595-.086-.925.643-1.9,1.227-2.783,1.922a24.375,24.375,0,0,0-8.7,24.311c.09.387.212.521.637.521q23.2-.024,46.412-.016h.591c.186-1.391.445-2.751.531-4.126a23.985,23.985,0,0,0-4.339-15.564m-5.247,8.969h-3.68c-.079,1.333-.159,2.56-.24,3.871h-3.388c-.057-1.269-.1-2.444-.17-3.818H578.04v-3.367h3.7v-3.987h3.516c.08,1.241.159,2.473.245,3.79,1.247.059,2.421.1,3.69.165Z"/>
      <path id="Path_51" data-name="Path 51" d="M586.833,3541.319a12.384,12.384,0,1,1-12.351-12.379,12.394,12.394,0,0,1,12.351,12.379"/>
      <path id="Path_52" data-name="Path 52" d="M586.894,3549.069a14.61,14.61,0,0,0,.072-15.152,7.048,7.048,0,0,1,2.449-.825c4.174-.552,7.622.751,10.064,4.22a10.013,10.013,0,0,1-6.893,15.6.907.907,0,0,1-.794-.217c-.767-.665-1.537-1.329-2.352-1.931s-1.68-1.125-2.546-1.7"/>
      <path id="Path_53" data-name="Path 53" d="M594.591,3555.257a12.927,12.927,0,0,0,6.417-4.129c.873.619,1.77,1.176,2.58,1.84a19.442,19.442,0,0,1,7.342,13.974,19.7,19.7,0,0,1-.406,5.71c-.053.249-.135.362-.418.361-2.855-.011-5.71-.007-8.566-.008-.1,0-.2-.017-.321-.029-.045-.684-.078-1.352-.131-2.02a29.179,29.179,0,0,0-2.139-9.264,19.143,19.143,0,0,0-4.142-6.191c-.061-.062-.115-.13-.216-.244"/>
      <path id="Path_54" data-name="Path 54" d="M602.79,3547.512a11.941,11.941,0,0,0,.059-12.382,5.759,5.759,0,0,1,2-.673,8.076,8.076,0,0,1,8.223,3.447,8.181,8.181,0,0,1-5.631,12.75.742.742,0,0,1-.649-.176c-.627-.542-1.256-1.087-1.922-1.578s-1.374-.92-2.081-1.388"/>
      <path id="Path_55" data-name="Path 55" d="M609.08,3552.566a10.553,10.553,0,0,0,5.242-3.373c.714.5,1.447.961,2.108,1.5a15.886,15.886,0,0,1,6,11.419,16.082,16.082,0,0,1-.331,4.667c-.043.2-.111.294-.341.293-2.334-.009-4.666,0-7-.007-.079,0-.159-.012-.263-.022-.035-.56-.064-1.106-.106-1.651a23.832,23.832,0,0,0-1.748-7.57,15.6,15.6,0,0,0-3.385-5.057c-.05-.05-.093-.107-.175-.2"/>
      <path id="Path_56" data-name="Path 56" d="M546.935,3547.512a11.943,11.943,0,0,1-.059-12.382,5.765,5.765,0,0,0-2-.673,8.076,8.076,0,0,0-8.223,3.447,8.181,8.181,0,0,0,5.631,12.75.744.744,0,0,0,.65-.176c.626-.542,1.255-1.087,1.921-1.578s1.373-.92,2.081-1.388"/>
      <path id="Path_57" data-name="Path 57" d="M540.645,3552.566a10.556,10.556,0,0,1-5.242-3.373c-.714.5-1.447.961-2.109,1.5a15.888,15.888,0,0,0-6,11.419,16.08,16.08,0,0,0,.331,4.667c.043.2.111.294.341.293,2.334-.009,4.666,0,7-.007.079,0,.16-.012.262-.022.036-.56.064-1.106.107-1.651a23.831,23.831,0,0,1,1.748-7.57,15.612,15.612,0,0,1,3.385-5.057c.05-.05.094-.107.175-.2"/>
      <path id="Path_58" data-name="Path 58" d="M562.09,3549.069a14.608,14.608,0,0,1-.072-15.152,7.047,7.047,0,0,0-2.45-.825c-4.174-.552-7.621.751-10.063,4.22a10.012,10.012,0,0,0,6.892,15.6.909.909,0,0,0,.8-.217c.765-.665,1.536-1.329,2.351-1.931s1.681-1.125,2.547-1.7"/>
      <path id="Path_59" data-name="Path 59" d="M554.393,3555.257a12.922,12.922,0,0,1-6.417-4.129c-.874.619-1.771,1.176-2.581,1.84a19.446,19.446,0,0,0-7.342,13.974,19.772,19.772,0,0,0,.406,5.71c.052.249.136.362.418.361,2.856-.011,5.71-.007,8.566-.008.1,0,.2-.017.323-.029.043-.684.077-1.352.129-2.02a29.154,29.154,0,0,1,2.14-9.264,19.128,19.128,0,0,1,4.142-6.191c.061-.062.114-.13.216-.244"/>
    </g>
  </g>
</svg>
