<svg xmlns="http://www.w3.org/2000/svg" width="355.335" height="290.842" viewBox="0 0 355.335 290.842">
  <g id="Group_12" data-name="Group 12" transform="translate(-2905.898 -1699.351)">
    <g id="Group_5" data-name="Group 5">
      <g id="Group_3" data-name="Group 3">
        <g id="Group_2" data-name="Group 2">
          <rect id="Rectangle_1" data-name="Rectangle 1" width="74.308" height="35.973" transform="translate(3061.392 1699.351)" fill="#0073a8"/>
          <rect id="Rectangle_2" data-name="Rectangle 2" width="34.167" height="35.973" transform="translate(3027.226 1699.351)" fill="#e71c24"/>
          <path id="Path_1" data-name="Path 1" d="M3050.964,1727.512v-5.552a1.255,1.255,0,0,0-.315-.935,1.285,1.285,0,0,0-.956-.313,1.266,1.266,0,0,1-.514-.068.246.246,0,0,1-.153-.235.288.288,0,0,1,.113-.235,1.578,1.578,0,0,1,.525-.161l.209-.05a6.652,6.652,0,0,0,1.01-.317c.263-.11.576-.264.958-.46a2.349,2.349,0,0,1,.719-.291.22.22,0,0,1,.214.11,1.489,1.489,0,0,1,.058.511v1.719a10.234,10.234,0,0,1,1.6-1.636,1.845,1.845,0,0,1,1.077-.4,1.874,1.874,0,0,1,1.154.417,1.124,1.124,0,0,1,.548.814,1.1,1.1,0,0,1-.339.685c-.228.259-.415.38-.567.38a2.211,2.211,0,0,1-.661-.315,2.1,2.1,0,0,0-1.063-.316,1.63,1.63,0,0,0-1.233.615,2,2,0,0,0-.546,1.369v4.3a5.347,5.347,0,0,0,.192,1.757,1.525,1.525,0,0,0,1.062.836,2.335,2.335,0,0,0,.443.04,1.222,1.222,0,0,1,.524.111.363.363,0,0,1,.115.283l-.129.218a.62.62,0,0,1-.329.085c-.066,0-.372-.019-.928-.066s-1.091-.061-1.582-.061a19.469,19.469,0,0,0-2.082.114l-.19.013-.219-.081-.094-.195.071-.188a1.175,1.175,0,0,1,.294-.233,2.451,2.451,0,0,0,.342-.218l.2-.2a1.9,1.9,0,0,0,.356-.729,4.206,4.206,0,0,0,.115-1.117m-19.034-.138v-12.205a3.526,3.526,0,0,0-.183-1.357,1.632,1.632,0,0,0-.671-.671,2.462,2.462,0,0,0-.729-.248l-.063-.012a1.263,1.263,0,0,1-.457-.14.277.277,0,0,1-.1-.231c0-.081.057-.152.158-.218a.76.76,0,0,1,.4-.1l.891.056c.583.041,1.158.055,1.725.055.439,0,1.166-.014,2.177-.055s1.787-.056,2.349-.056a11.06,11.06,0,0,1,7.494,2.359,8.135,8.135,0,0,1,2.723,6.5,8.859,8.859,0,0,1-2.776,6.834,10.544,10.544,0,0,1-7.441,2.56c-.852,0-1.787-.029-2.792-.078s-1.59-.075-1.758-.075a8.288,8.288,0,0,0-1.586.153c-.524.1-.795.151-.806.151a.527.527,0,0,1-.328-.113l-.148-.217a.376.376,0,0,1,.13-.293,1.5,1.5,0,0,1,.509-.227l.152-.066a1.782,1.782,0,0,0,.5-.277,1.568,1.568,0,0,0,.486-.71,4.669,4.669,0,0,0,.14-1.324m2.088.243a2.563,2.563,0,0,0,.069.7.557.557,0,0,0,.2.339,4.428,4.428,0,0,0,1.612.62,10.484,10.484,0,0,0,2.342.256,7.365,7.365,0,0,0,5.493-1.956,7.618,7.618,0,0,0,1.935-5.592,8.468,8.468,0,0,0-9.1-9.079,4.351,4.351,0,0,0-2.064.319,1.506,1.506,0,0,0-.492,1.349Z" fill="#fff"/>
          <path id="Path_2" data-name="Path 2" d="M3125.782,1729.25l-.024-2.16a.781.781,0,0,1,.081-.412.273.273,0,0,1,.256-.136c.163,0,.282.2.349.587a6,6,0,0,0,.186.737,3.291,3.291,0,0,0,1.019,1.554,2.493,2.493,0,0,0,1.6.53,2.3,2.3,0,0,0,1.645-.6,2.044,2.044,0,0,0,.637-1.557c0-.772-.794-1.52-2.392-2.248-.3-.139-.537-.248-.705-.328a5.179,5.179,0,0,1-1.866-1.282,2.553,2.553,0,0,1-.559-1.656,2.778,2.778,0,0,1,.948-2.2,3.788,3.788,0,0,1,2.568-.822,6.078,6.078,0,0,1,1.968.253c.457.17.69.409.7.713l.028,1.461a.85.85,0,0,1-.051.347l-.181.1c-.144,0-.242-.133-.33-.4a1.987,1.987,0,0,0-.23-.568,2.94,2.94,0,0,0-1.051-.931,2.612,2.612,0,0,0-1.281-.339,2,2,0,0,0-1.328.42,1.368,1.368,0,0,0-.5,1.106q0,1.228,3.054,2.516c.147.054.251.1.332.138a3.972,3.972,0,0,1,1.638,1.194,2.881,2.881,0,0,1,.524,1.759,3.562,3.562,0,0,1-1.07,2.646,3.764,3.764,0,0,1-2.73,1.048,5.157,5.157,0,0,1-2.179-.582,2.646,2.646,0,0,0-.428-.18l-.175-.041c-.3-.054-.457-.277-.457-.659m-5.388-16.165,1.11-1.173.133-.074.177-.025c.376,0,.746.281,1.128.847a3.368,3.368,0,0,1,.57,1.936,4.917,4.917,0,0,1-.264,1.592,5.811,5.811,0,0,1-.819,1.485,5.614,5.614,0,0,1-.9.956,1.2,1.2,0,0,1-.7.338l-.176-.05-.057-.154c0-.071.1-.22.3-.428a3.33,3.33,0,0,0,1.023-2.337,2.272,2.272,0,0,0-.177-.94,2.368,2.368,0,0,0-.547-.769c-.1-.088-.267-.214-.471-.365-.3-.222-.455-.387-.455-.5l.025-.207Zm-4.373,16.041a6.106,6.106,0,0,1-1.924,1.2,6.8,6.8,0,0,1-2.326.383,2.66,2.66,0,0,1-1.924-.641,2.489,2.489,0,0,1-.657-1.86,2.785,2.785,0,0,1,1.462-2.476,16.3,16.3,0,0,1,5.2-1.6v-1.786a2.272,2.272,0,0,0-.739-1.814,3.168,3.168,0,0,0-2.125-.628,3.072,3.072,0,0,0-1.667.329,1.261,1.261,0,0,0-.491,1.12,3.684,3.684,0,0,0,.1.761,3.811,3.811,0,0,1,.1.524.356.356,0,0,1-.18.3.821.821,0,0,1-.448.11,1.39,1.39,0,0,1-.877-.273.8.8,0,0,1-.362-.683,2.516,2.516,0,0,1,1.254-2.011,4.849,4.849,0,0,1,2.942-.912,5.01,5.01,0,0,1,3.355.878,4.06,4.06,0,0,1,.976,3.113v4.776a2.908,2.908,0,0,0,.215,1.4.915.915,0,0,0,.809.312c.078,0,.163-.006.286-.014s.2-.013.245-.013l.169.083.075.2c0,.178-.141.323-.427.439a2.986,2.986,0,0,1-1.114.181,1.961,1.961,0,0,1-1.191-.352,2.232,2.232,0,0,1-.739-1.045m-.167-4.4a12.155,12.155,0,0,0-3.892,1.285,2.192,2.192,0,0,0-1.072,1.909,1.944,1.944,0,0,0,.516,1.441,1.988,1.988,0,0,0,1.45.515,3.387,3.387,0,0,0,2.14-.652,2.006,2.006,0,0,0,.858-1.666Zm-14.439,2.786v-5.551a1.256,1.256,0,0,0-.309-.936,1.3,1.3,0,0,0-.964-.312,1.313,1.313,0,0,1-.514-.068.243.243,0,0,1-.147-.235.284.284,0,0,1,.115-.236,1.561,1.561,0,0,1,.523-.16l.212-.051a6.613,6.613,0,0,0,1.009-.316c.261-.11.575-.264.956-.46a2.5,2.5,0,0,1,.711-.291.219.219,0,0,1,.218.11,1.462,1.462,0,0,1,.058.511v1.719a10.6,10.6,0,0,1,1.6-1.636,1.826,1.826,0,0,1,1.077-.4,1.863,1.863,0,0,1,1.153.418,1.132,1.132,0,0,1,.547.812,1.081,1.081,0,0,1-.339.685c-.23.258-.413.38-.567.38a2.216,2.216,0,0,1-.662-.314,2.088,2.088,0,0,0-1.062-.317,1.633,1.633,0,0,0-1.238.616,2.049,2.049,0,0,0-.538,1.369v4.3a5.436,5.436,0,0,0,.191,1.756,1.5,1.5,0,0,0,.724.726,1.568,1.568,0,0,0,.342.11,2.177,2.177,0,0,0,.44.04,1.162,1.162,0,0,1,.518.112.341.341,0,0,1,.115.283l-.124.218a.622.622,0,0,1-.334.085c-.058,0-.371-.019-.928-.065s-1.09-.062-1.581-.062a19.293,19.293,0,0,0-2.078.114c-.1.011-.172.013-.191.013l-.225-.081-.085-.2.062-.187a1.312,1.312,0,0,1,.3-.233,2.356,2.356,0,0,0,.343-.217l.205-.2a1.97,1.97,0,0,0,.356-.729,4.487,4.487,0,0,0,.11-1.118m-8.819-6.9h-.99l-.233-.1-.128-.193c0-.061.2-.252.573-.575a12.474,12.474,0,0,0,1.052-1.013,6.446,6.446,0,0,0,.77-1.095c.282-.483.491-.722.626-.722l.156.063a.482.482,0,0,1,.043.252v2.338h2.3a2.888,2.888,0,0,0,1.363-.3.686.686,0,0,1,.235-.092l.079.045.02.146a1.378,1.378,0,0,1-.316.906.971.971,0,0,1-.8.391,1.621,1.621,0,0,1-.229-.026,1.821,1.821,0,0,0-.243-.026h-2.416v7.258a2,2,0,0,0,.477,1.442,1.823,1.823,0,0,0,1.377.49,3.753,3.753,0,0,0,1.748-.479,1.141,1.141,0,0,1,.35-.145l.186.038.073.115c0,.3-.319.623-.956.947a4.578,4.578,0,0,1-2.112.494,2.953,2.953,0,0,1-2.312-.8,4.062,4.062,0,0,1-.7-2.677Zm-6.233,8.518a6.057,6.057,0,0,1-1.93,1.2,6.759,6.759,0,0,1-2.32.383,2.634,2.634,0,0,1-1.919-.641,2.489,2.489,0,0,1-.659-1.86,2.782,2.782,0,0,1,1.458-2.476,16.281,16.281,0,0,1,5.2-1.6v-1.786a2.254,2.254,0,0,0-.739-1.814,3.165,3.165,0,0,0-2.124-.628,3.075,3.075,0,0,0-1.666.329,1.257,1.257,0,0,0-.492,1.12,3.44,3.44,0,0,0,.1.761,4.206,4.206,0,0,1,.095.524.349.349,0,0,1-.182.3.824.824,0,0,1-.441.11,1.393,1.393,0,0,1-.882-.273.819.819,0,0,1-.362-.683,2.519,2.519,0,0,1,1.253-2.011,4.849,4.849,0,0,1,2.945-.912,5,5,0,0,1,3.352.878,4.044,4.044,0,0,1,.976,3.113v4.776a2.852,2.852,0,0,0,.216,1.4.921.921,0,0,0,.808.312c.072,0,.168-.006.292-.014s.195-.013.238-.013l.173.083.079.2c0,.178-.147.323-.431.439a3,3,0,0,1-1.118.181,1.963,1.963,0,0,1-1.189-.352,2.23,2.23,0,0,1-.738-1.045m-.168-4.4a12.122,12.122,0,0,0-3.89,1.285,2.189,2.189,0,0,0-1.073,1.909,1.79,1.79,0,0,0,1.966,1.956,3.434,3.434,0,0,0,2.146-.652,2.028,2.028,0,0,0,.851-1.666Zm-20.6,2.187v-11.27a4.469,4.469,0,0,0-.2-1.53,1.724,1.724,0,0,0-1.081-1.031,3.292,3.292,0,0,0-.576-.146,1.444,1.444,0,0,1-.466-.14l-.1-.23a.324.324,0,0,1,.106-.285.814.814,0,0,1,.449-.085q.131,0,1.039.07c.615.046,1.183.067,1.72.067.337,0,.9-.021,1.677-.067s1.4-.07,1.867-.07a7.441,7.441,0,0,1,4.444,1.16,3.749,3.749,0,0,1,1.606,3.225,3.642,3.642,0,0,1-.615,2.1,4.745,4.745,0,0,1-1.837,1.537v.24a5.111,5.111,0,0,1,3.023,1.509,4.3,4.3,0,0,1,1.049,2.987,5.123,5.123,0,0,1-1.768,4.1,7.173,7.173,0,0,1-4.816,1.521c-.7,0-1.524-.037-2.492-.115s-1.581-.118-1.844-.118c-.766,0-1.571.047-2.417.13-.212.016-.344.025-.393.025l-.2-.111-.1-.245c0-.177.158-.323.468-.442h.012a4.079,4.079,0,0,0,.481-.246,1.265,1.265,0,0,0,.31-.252,1.836,1.836,0,0,0,.5-.825,5.3,5.3,0,0,0,.154-1.464m2.061.982a1.643,1.643,0,0,0,.611,1.492,5.588,5.588,0,0,0,2.582.387,5.516,5.516,0,0,0,3.621-1.017,3.763,3.763,0,0,0,1.208-3.048,4.223,4.223,0,0,0-1.438-3.407,6.046,6.046,0,0,0-4.03-1.22H3068.6a1.2,1.2,0,0,0-.776.162,1.187,1.187,0,0,0-.163.78Zm0-8.645a1.159,1.159,0,0,0,.16.764.96.96,0,0,0,.646.154h1.877a5.081,5.081,0,0,0,2.979-.685,2.5,2.5,0,0,0,.922-2.149,3.826,3.826,0,0,0-1.423-3.044,5.377,5.377,0,0,0-3.594-1.2,1.95,1.95,0,0,0-1.271.287,1.628,1.628,0,0,0-.3,1.148Z" fill="#fff"/>
          <path id="Path_3" data-name="Path 3" d="M3130.669,1702.52v.989h.366a3.729,3.729,0,0,0,.807-.059l.232-.17.094-.261a.471.471,0,0,0-.155-.352,1.311,1.311,0,0,0-.792-.147Zm-.376-.3h1.124a1.445,1.445,0,0,1,.881.217.7.7,0,0,1,.261.548.736.736,0,0,1-.275.581,1.174,1.174,0,0,1-.589.221,1.262,1.262,0,0,1,.246.149,2.134,2.134,0,0,1,.224.265c.1.135.176.248.234.341l.29.52h-.458l-.285-.47a2.257,2.257,0,0,0-.486-.655,1.1,1.1,0,0,0-.552-.1h-.239v1.23h-.376Zm3.388,1.515a2.258,2.258,0,0,0-.7-1.659,2.429,2.429,0,0,0-3.382,0,2.31,2.31,0,0,0,0,3.313,2.419,2.419,0,0,0,3.382,0,2.242,2.242,0,0,0,.7-1.654m.3,0a2.481,2.481,0,0,1-.786,1.861,2.71,2.71,0,0,1-3.8,0,2.588,2.588,0,0,1,0-3.727,2.725,2.725,0,0,1,3.8,0,2.49,2.49,0,0,1,.786,1.866" fill="#fff"/>
          <g id="Group_1" data-name="Group 1">
            <path id="Path_4" data-name="Path 4" d="M3055.45,1699.351c1.427,6.259,1.64,12.013-.222,18.137a45.126,45.126,0,0,1,5.425-6.588,42.574,42.574,0,0,1,8.847-6.014C3062.379,1708.738,3056.58,1704.666,3055.45,1699.351Z" fill="#fff"/>
            <path id="Path_5" data-name="Path 5" d="M3061.376,1702.742a1.187,1.187,0,1,1-1.189,1.187,1.188,1.188,0,0,1,1.189-1.187" fill="#fff"/>
          </g>
        </g>
      </g>
      <g id="Group_4" data-name="Group 4">
        <path id="Path_6" data-name="Path 6" d="M3049.083,1744.51v1.905a15.829,15.829,0,0,0-3.826.6q-3.072.749-3.033,7.088v14.957h22.635v-14.957c-.027-3.11-.421-5.068-1.2-5.885q-1.574-1.69-5.655-1.806v-1.905h21.854v1.905c-3.147.206-5.158.948-6.039,2.252-.551.845-.819,3.032-.819,6.551V1786.8c-.026,3.2.319,5.231,1.048,6.1.87,1.075,2.816,1.689,5.81,1.843v1.906H3058v-1.906c2.967-.1,4.886-.718,5.732-1.843q1.056-1.382,1.125-6.1v-14.359h-22.635v15.291c-.026,2.778.447,4.62,1.408,5.553s2.776,1.408,5.451,1.46v1.906h-21.857v-1.906c3.021-.078,4.954-.679,5.772-1.805q1.131-1.5,1.087-6.14v-32.694c-.026-3.085-.409-5.054-1.164-5.923-.87-1.051-2.775-1.64-5.695-1.768v-1.905Zm44.954,49.824c1.471-.383,2.879-1.892,4.2-4.542.869-1.727,1.778-3.685,2.7-5.886l16.685-40.37h1.906l19.041,45.016a24.854,24.854,0,0,0,2.252,4.388c.831,1.151,2.3,1.753,4.428,1.805v1.906h-19.566v-1.906c3.354.05,4.979-.794,4.9-2.509a13.493,13.493,0,0,0-1.306-4.848l-3.595-8.357h-18.6l-2.392,5.848-1.42,3.9a7.373,7.373,0,0,0-.639,2.894q-.119,2.836,5.054,3.07v1.906h-15.329v-1.906l1.689-.411Zm14.434-18.669v-.012H3124.4v.012l-7.867-19.537h0l-8.061,19.537Zm48.9,19.08q5.432-.192,6.141-2.457a24.787,24.787,0,0,0,.716-6.91v-30.261c0-3.429-.268-5.617-.817-6.563-.808-1.345-2.816-2.063-6.04-2.139v-1.905h21.855v1.905c-3.071.128-5.081.844-6.04,2.176q-.825,1.23-.819,6.526v30.261c0,3.595.231,5.923.678,7,.64,1.573,2.713,2.367,6.181,2.367v1.906h-21.855v-1.906Zm34.358,0c2.995-.206,4.889-.82,5.657-1.869s1.176-3.02,1.2-5.885v-33.64c0-2.649-.475-4.453-1.42-5.4-.781-.767-2.586-1.28-5.439-1.536v-1.905h15.407l5.923.114q9.177.288,13.194,2.739a12.584,12.584,0,0,1,6.37,11.273,14.084,14.084,0,0,1-.817,4.8,11.1,11.1,0,0,1-2.74,4.133c-1.982,2-5.194,3.494-9.672,4.493l11.81,15.034a56.037,56.037,0,0,0,4.275,4.99,8.222,8.222,0,0,0,5.617,2.662v1.906h-12.374l-18.029-23.427h-3.968v13.767c.025,3.019.423,5.015,1.178,5.988s2.662,1.56,5.68,1.766v1.906h-21.854v-1.906Zm15-24.9h4.466q12.283-.038,12.323-11.5.077-5.431-3.787-8.024a14.869,14.869,0,0,0-8.765-2.429l-2.022.115q-2.286.286-2.215,3.185v18.656Z" fill="#6e579f"/>
        <path id="Path_7" data-name="Path 7" d="M3039.4,1809.55l1.1-1.871a3.962,3.962,0,0,0,.388-.877,1.512,1.512,0,0,0,.061-.437c-.027-.5-.431-.813-1.229-.955l-.437-.052.176-.636h4.927l-.15.636-.4.113a1.774,1.774,0,0,0-.825.63l-.306.477-1.038,1.743-8.486,14.164h-.727l-2.035-14.8-.135-.825-.126-.465c-.225-.584-.837-.934-1.83-1.042l.149-.636h6.393l-.149.636-.553.092a1.237,1.237,0,0,0-1.053,1.287,5.35,5.35,0,0,0,.066.953l1.228,10.222h0l4.989-8.362Zm7.966,9.975-.214.351a11.436,11.436,0,0,1-.955,1.292,3.148,3.148,0,0,1-2.379,1.317c-.921-.015-1.369-.607-1.344-1.766a9.617,9.617,0,0,1,.449-2.307l1.721-5.82a2.711,2.711,0,0,0,.111-.749.69.69,0,0,0-.637-.754l-.617-.039h-.365l.176-.5,4.25-.739-2.631,9.139-.261,1.041a2.655,2.655,0,0,0-.116.65c-.025.269.106.407.389.415a1.394,1.394,0,0,0,.941-.552,8.831,8.831,0,0,0,.831-1l.188-.266.463.288Zm-1.568-13.75c.01-1,.455-1.5,1.34-1.519.856.015,1.285.486,1.292,1.416a1.562,1.562,0,0,1-.377,1.065,1.185,1.185,0,0,1-.986.428c-.844.018-1.269-.449-1.269-1.39Zm4.277,5.362.188-.639a5.942,5.942,0,0,0,2.332-1.181,12,12,0,0,0,1.143-1.078l.937-1.026h.427l-.74,2.923h2.093l-.227,1h-2.117l-2.3,8.328-.111.564-.1.54a.652.652,0,0,0,.077.351l.1.1.089.037c.266-.016.7-.377,1.289-1.078.235-.282.444-.561.628-.827l.137-.213.5.311-.324.489-.74,1.007a7.784,7.784,0,0,1-.839.915,2.76,2.76,0,0,1-1.893.825c-.833-.007-1.252-.462-1.252-1.365a3.572,3.572,0,0,1,.136-.805l.428-1.629,2.092-7.549Zm13.462,8.075a11.868,11.868,0,0,1-2.007,2.247,4.5,4.5,0,0,1-2.76,1.026,2.26,2.26,0,0,1-1.955-1.052,3.942,3.942,0,0,1-.664-2.207,7.652,7.652,0,0,1,.615-2.934,12.091,12.091,0,0,1,3.426-4.839,7.856,7.856,0,0,1,1.9-1.227,4.239,4.239,0,0,1,1.83-.415,2.17,2.17,0,0,1,1.691.739l.325.416.254-.83h1.967l-.287.967-.728,2.658-1,3.71-.475,1.967a5.757,5.757,0,0,0-.19,1.229.463.463,0,0,0,.079.266l.1.1.09.026c.335-.052.873-.516,1.619-1.405l.4-.511.416.449-.462.578-.754.852a4.127,4.127,0,0,1-2.449,1.466c-.765-.026-1.138-.4-1.112-1.129a4.975,4.975,0,0,1,.1-.89l.375-1.7-.338.449Zm-5-.176q.024,1.971,1.553,2.02,1.657-.012,3.338-2.808a13.611,13.611,0,0,0,.989-2.079,20.444,20.444,0,0,0,.676-2.071,7.466,7.466,0,0,0,.3-1.931,1.617,1.617,0,0,0-.389-1.094,1.333,1.333,0,0,0-1.019-.46,3.371,3.371,0,0,0-2.143,1,7.1,7.1,0,0,0-1.464,1.87,18.771,18.771,0,0,0-1.018,2.082,8.84,8.84,0,0,0-.826,3.469Zm14.755-11.82a4.563,4.563,0,0,0,.189-1.04l-.027-.2c-.107-.245-.422-.376-.94-.4l-.7-.013.176-.5,4.248-.741-4.073,14.982a6.375,6.375,0,0,0-.261,1.306l.046.222a.27.27,0,0,0,.3.227q.3,0,.989-.617l.654-.675.5-.6.227-.272.5.35-.377.527a11.581,11.581,0,0,1-.915,1.156,3.759,3.759,0,0,1-2.594,1.565,1.552,1.552,0,0,1-1.078-.336,1.231,1.231,0,0,1-.441-1.029,3.027,3.027,0,0,1,.112-.877l.466-1.793,3-11.234Zm8.316,12.309-.213.351a11.406,11.406,0,0,1-.955,1.292,3.149,3.149,0,0,1-2.379,1.317c-.921-.015-1.37-.607-1.344-1.766a9.652,9.652,0,0,1,.448-2.307l1.721-5.82a2.712,2.712,0,0,0,.112-.749.691.691,0,0,0-.638-.754l-.617-.039h-.364l.176-.5,4.251-.739-2.632,9.139-.261,1.041a2.655,2.655,0,0,0-.116.65c-.026.269.1.407.388.415a1.4,1.4,0,0,0,.942-.552,8.831,8.831,0,0,0,.831-1l.187-.266.463.288Zm-1.567-13.75q.015-1.5,1.339-1.519c.856.015,1.285.486,1.293,1.416a1.562,1.562,0,0,1-.377,1.065,1.187,1.187,0,0,1-.987.428c-.844.018-1.268-.449-1.268-1.39Zm3.523,15.08.877-1.091,6.269-7.874h-2.8l-1.039.012A2.01,2.01,0,0,0,3085,1813.4l-.615-.124.889-3.135h7.084l.415.448-7.635,9.483v0a4.021,4.021,0,0,1,2.241,1.041,6.5,6.5,0,0,1,.656.765c.343.459.621.806.839,1.041a1.544,1.544,0,0,0,1.177.551.681.681,0,0,0,.389-.11l.137-.156.027-.109a1.719,1.719,0,0,0-.3-.377.686.686,0,0,1-.31-.586.8.8,0,0,1,.376-.669,1.17,1.17,0,0,1,.74-.274,1.112,1.112,0,0,1,.813.335,1.023,1.023,0,0,1,.338.756,1.782,1.782,0,0,1-.864,1.506,2.867,2.867,0,0,1-1.7.49,2.957,2.957,0,0,1-1.626-.43l-1.747-1.026a10.2,10.2,0,0,0-1-.487l-.638-.2a2.6,2.6,0,0,0-.628-.078,1.527,1.527,0,0,0-.676.138l-.463.3-.429-.388,1.067-1.242Zm15.158-1.33-.214.351a11.436,11.436,0,0,1-.955,1.292,3.148,3.148,0,0,1-2.378,1.317c-.922-.015-1.37-.607-1.344-1.766a9.6,9.6,0,0,1,.448-2.307l1.721-5.82a2.749,2.749,0,0,0,.112-.749.692.692,0,0,0-.638-.754l-.617-.039h-.364l.175-.5,4.25-.739-2.631,9.139-.261,1.041a2.655,2.655,0,0,0-.116.65c-.026.269.106.407.389.415a1.394,1.394,0,0,0,.941-.552,8.94,8.94,0,0,0,.832-1l.187-.266.463.288Zm-1.568-13.75c.01-1,.455-1.5,1.34-1.519.856.015,1.284.486,1.292,1.416a1.566,1.566,0,0,1-.376,1.065,1.19,1.19,0,0,1-.988.428c-.844.018-1.268-.449-1.268-1.39Zm4.192,12.888.851-3,.761-3.087a4.663,4.663,0,0,0,.128-.788.667.667,0,0,0-.642-.7l-.613-.039h-.377l.164-.5,4.263-.739-1.529,5.242.425-.616.753-1.08c1.745-2.388,3.287-3.573,4.612-3.546a1.547,1.547,0,0,1,1.619,1.552l.012.279-.026.324-.124.8-.226.9-1.514,5.515-.317,1.268-.014.2.026.176a.239.239,0,0,0,.291.227q.538-.024,1.541-1.229l.561-.7.44.3-.552.806a7.443,7.443,0,0,1-.774.945,5.574,5.574,0,0,1-.868.719,3.928,3.928,0,0,1-.725.4,1.682,1.682,0,0,1-.844.187c-.773,0-1.176-.452-1.2-1.365a3.07,3.07,0,0,1,.09-.867q.174-.978.377-1.705l1.352-4.877.189-.852a5.751,5.751,0,0,0,.112-.89l-.048-.314a.459.459,0,0,0-.466-.375,3.222,3.222,0,0,0-1.892,1.176l-.688.792a24.143,24.143,0,0,0-1.721,2.584,11.481,11.481,0,0,0-.814,1.619l-.5,1.476-1.039,3.273h-2.034l.982-3.5Zm14.339,2.106a1.018,1.018,0,0,1-.324-.706c-.026-.625.4-1.21,1.279-1.754l.766-.449-.351-.175a3.2,3.2,0,0,1-1.759-3.022,4.5,4.5,0,0,1,1.767-3.463,5.5,5.5,0,0,1,3.689-1.389,3.96,3.96,0,0,1,2.119.6l.415.249h0a2.341,2.341,0,0,0,1.039.161h.954v1.164h-1.291v0l.1.476a4.351,4.351,0,0,1,.052.715,4.713,4.713,0,0,1-1.527,3.587,5.147,5.147,0,0,1-3.639,1.4l-.762-.111-.516.4a1.366,1.366,0,0,0-.3.429l-.026.2q0,.424.891.739l1.857.664.562.24a5.742,5.742,0,0,1,1.442.951,2.689,2.689,0,0,1,.791,2.006,3.544,3.544,0,0,1-1.767,3.073,6.188,6.188,0,0,1-3.527.917,7.69,7.69,0,0,1-2.594-.417,2.941,2.941,0,0,1-1.344-.877,2.441,2.441,0,0,1-.714-1.741,2.728,2.728,0,0,1,.74-1.859,9.818,9.818,0,0,1,1.609-1.292l.664-.448h0l-.291-.275Zm1.005.638h0a10.369,10.369,0,0,0-1.142.839,2.694,2.694,0,0,0-.994,2.17,2.059,2.059,0,0,0,1.157,1.9,4.611,4.611,0,0,0,2.281.553,4.017,4.017,0,0,0,2.157-.538,2.182,2.182,0,0,0,1.169-1.833,1.852,1.852,0,0,0-.917-1.553,5.736,5.736,0,0,0-.989-.526l-1.557-.587-.651-.238-.514-.19Zm.638-5.982q0,1.995,1.6,1.942,1.63,0,2.684-2.528a6.042,6.042,0,0,0,.486-2.32q-.024-1.895-1.453-1.906a2.972,2.972,0,0,0-2.531,1.868,6.121,6.121,0,0,0-.791,2.944Zm18.527,6.1,1.09-.228a1.962,1.962,0,0,0,1.494-1.278q.387-1.066.638-1.944l3.423-12.222h-.578l-.851.013a5.749,5.749,0,0,0-1.83.308,3.371,3.371,0,0,0-1.294.921,6.993,6.993,0,0,0-.928,1.254l-.339.636-.526-.109,1.041-4.152h13.955l-1.19,4.261-.579-.089.066-.812c.012-1.345-.771-2.072-2.358-2.18l-.788-.051h-1.131l-3.461,12.364q-.263.951-.411,1.639l-.051.466q-.012.9,1.228,1.079l1.156.124-.189.637H3135.7l.149-.637Zm14.47-2.311,1.18-4.264.6-2.378a4.452,4.452,0,0,0,.116-.78l-.04-.3c-.042-.209-.3-.347-.778-.4l-.612-.039h-.365l.164-.5,4.263-.739-1.32,4.763.655-1.029,1-1.48q1.554-2.227,2.846-2.254c.832.015,1.264.5,1.306,1.441a1.466,1.466,0,0,1-.313,1.015,1.274,1.274,0,0,1-.953.441.97.97,0,0,1-.892-.451l-.3-.375-.112-.052-.141.013-.221.149-.6.6a15.243,15.243,0,0,0-1.681,2.509,16.453,16.453,0,0,0-.865,1.864c-.334.813-.624,1.619-.864,2.423l-.877,2.768h-2.046l.852-2.948Zm11.634-1.5a4.678,4.678,0,0,0-.15,1.113,1.815,1.815,0,0,0,.112.7,1.883,1.883,0,0,0,.527.84,2.338,2.338,0,0,0,1.746.688,3.226,3.226,0,0,0,1.429-.287,8.174,8.174,0,0,0,1.305-.752l.727-.5.3-.228.377.415-.59.527c-.359.309-.72.593-1.078.865a6.109,6.109,0,0,1-3.626,1.389,3.579,3.579,0,0,1-1.631-.336,3.38,3.38,0,0,1-1.979-3.438,8.946,8.946,0,0,1,2.4-5.868q2.605-3.036,5.529-3.032c1.569.026,2.349.706,2.331,2.045q-.024,2.136-2.67,3.77a12.027,12.027,0,0,1-4.554,1.442l-.337.038-.163.6Zm.4-1.407.916-.241a5.887,5.887,0,0,0,4.185-3.594,2.406,2.406,0,0,0,.189-.877c.008-.668-.295-.992-.915-.978q-1.252.052-2.833,2.356a9.13,9.13,0,0,0-1.027,1.856,15.131,15.131,0,0,0-.515,1.478Zm15.3,2.909a11.905,11.905,0,0,1-2.008,2.247,4.5,4.5,0,0,1-2.76,1.026,2.263,2.263,0,0,1-1.956-1.052,3.944,3.944,0,0,1-.664-2.207,7.677,7.677,0,0,1,.616-2.934,12.091,12.091,0,0,1,3.426-4.839,7.856,7.856,0,0,1,1.9-1.227,4.237,4.237,0,0,1,1.83-.415,2.169,2.169,0,0,1,1.691.739l.325.416.253-.83h1.968l-.287.967-.727,2.658-1,3.71-.475,1.967a5.7,5.7,0,0,0-.19,1.229.454.454,0,0,0,.079.266l.1.1.089.026c.336-.052.874-.516,1.62-1.405l.4-.511.417.449-.462.578-.753.852a4.133,4.133,0,0,1-2.449,1.466c-.766-.026-1.139-.4-1.113-1.129a5.077,5.077,0,0,1,.1-.89l.375-1.7-.336.449Zm-5-.176q.024,1.971,1.553,2.02,1.656-.012,3.338-2.808a13.588,13.588,0,0,0,.989-2.079,20.5,20.5,0,0,0,.676-2.071,7.475,7.475,0,0,0,.3-1.931,1.617,1.617,0,0,0-.389-1.094,1.333,1.333,0,0,0-1.019-.46,3.374,3.374,0,0,0-2.143,1,7.083,7.083,0,0,0-1.464,1.87,18.772,18.772,0,0,0-1.019,2.082,8.855,8.855,0,0,0-.825,3.469Zm11.512-7.9.188-.639a5.942,5.942,0,0,0,2.332-1.181,11.858,11.858,0,0,0,1.143-1.078l.937-1.026h.427l-.74,2.923h2.094l-.228,1H3188.2l-2.295,8.328-.112.564-.1.54a.665.665,0,0,0,.075.351l.1.1.09.037c.265-.016.7-.377,1.288-1.078.235-.282.444-.561.628-.827l.138-.213.5.311-.325.489-.74,1.007a7.721,7.721,0,0,1-.839.915,2.759,2.759,0,0,1-1.892.825q-1.251-.01-1.252-1.365a3.63,3.63,0,0,1,.135-.805l.429-1.629,2.092-7.549Zm11.4,2.008q2.529-3.321,4.374-3.334a1.4,1.4,0,0,1,1.013.44,1.447,1.447,0,0,1,.4,1.026,4.582,4.582,0,0,1-.111.964q-.237,1.115-.616,2.533,3.134-4.947,5.445-4.963a1.419,1.419,0,0,1,1.177.576,2.012,2.012,0,0,1,.4,1.28,2.681,2.681,0,0,1-.066.749l-.538,2.032-1.314,4.738c-.167.612-.274,1.037-.313,1.268l-.011.2.021.176a.238.238,0,0,0,.291.227,1.55,1.55,0,0,0,.889-.512c.187-.186.411-.425.664-.717l.56-.7.441.3-.552.806q-1.592,2.227-3.308,2.254a.96.96,0,0,1-.822-.459,1.668,1.668,0,0,1-.295-.944,4.231,4.231,0,0,1,.188-1.2l.716-2.636.9-3.281.339-1.168a3.655,3.655,0,0,0,.142-.93.54.54,0,0,0-.579-.624,2.642,2.642,0,0,0-1.844,1.215q-.554.681-1.091,1.417a14.954,14.954,0,0,0-1.19,1.845,16.468,16.468,0,0,0-1.4,3.383l-.889,3.06h-1.99l1.476-5.191.831-2.921a8.368,8.368,0,0,0,.448-2.082c.009-.475-.2-.718-.623-.726q-1.053,0-2.949,2.67a19.148,19.148,0,0,0-1.262,2.006,18.211,18.211,0,0,0-1.593,3.814l-.681,2.43h-2.067l2.722-9.582a2.74,2.74,0,0,0,.111-.748.683.683,0,0,0-.624-.741l-.616-.039h-.377l.162-.5,4.25-.739-1.552,5.151,1.3-1.817Zm16.321,4.565a4.736,4.736,0,0,0-.149,1.113,1.8,1.8,0,0,0,.112.7,1.872,1.872,0,0,0,.526.84,2.337,2.337,0,0,0,1.746.688,3.231,3.231,0,0,0,1.43-.287,8.138,8.138,0,0,0,1.3-.752l.728-.5.3-.228.377.415-.59.527c-.359.309-.72.593-1.08.865a6.1,6.1,0,0,1-3.624,1.389,3.574,3.574,0,0,1-1.631-.336,3.379,3.379,0,0,1-1.98-3.438,8.948,8.948,0,0,1,2.4-5.868q2.606-3.036,5.53-3.032,2.354.039,2.331,2.045-.024,2.136-2.67,3.77a12.045,12.045,0,0,1-4.555,1.442l-.336.038-.164.6Zm.4-1.407.916-.241a5.887,5.887,0,0,0,4.185-3.594,2.406,2.406,0,0,0,.189-.877c.007-.668-.3-.992-.915-.978q-1.254.052-2.834,2.356a9.24,9.24,0,0,0-1.027,1.856,14.933,14.933,0,0,0-.514,1.478Zm8.881,2.36.851-3,.762-3.087a4.765,4.765,0,0,0,.128-.788.668.668,0,0,0-.643-.7l-.611-.039h-.378l.164-.5,4.263-.739-1.529,5.242.424-.616.754-1.08q2.618-3.582,4.612-3.546a1.546,1.546,0,0,1,1.618,1.552l.013.279-.026.324-.124.8-.227.9-1.514,5.515-.317,1.268-.013.2.026.176a.238.238,0,0,0,.29.227q.54-.024,1.541-1.229l.561-.7.441.3-.552.806a7.443,7.443,0,0,1-.774.945,5.536,5.536,0,0,1-.869.719,3.89,3.89,0,0,1-.724.4,1.683,1.683,0,0,1-.843.187c-.775,0-1.177-.452-1.2-1.365a3.066,3.066,0,0,1,.089-.867q.175-.978.378-1.705l1.351-4.877.19-.852a5.889,5.889,0,0,0,.111-.89l-.048-.314a.458.458,0,0,0-.466-.375,3.232,3.232,0,0,0-1.893,1.176l-.687.792a24.329,24.329,0,0,0-1.721,2.584,11.486,11.486,0,0,0-.813,1.619l-.5,1.476-1.038,3.273h-2.034l.981-3.5Zm12.924-7.526.187-.639a5.939,5.939,0,0,0,2.333-1.181,11.973,11.973,0,0,0,1.143-1.078l.937-1.026h.426l-.739,2.923h2.094l-.229,1h-2.117l-2.294,8.328-.112.564-.1.54a.653.653,0,0,0,.076.351l.1.1.09.037c.265-.016.7-.377,1.287-1.078.236-.282.445-.561.629-.827l.137-.213.5.311-.325.489-.74,1.007a7.7,7.7,0,0,1-.839.915,2.761,2.761,0,0,1-1.893.825c-.833-.007-1.252-.462-1.252-1.365a3.616,3.616,0,0,1,.135-.805l.429-1.629,2.092-7.549Z" fill="#6e579f"/>
        <path id="Path_8" data-name="Path 8" d="M2927.58,1750.2c-1.432,14.485,1.259,25.59,6.829,33.072,22.616-32.089,52.589-47.214,72.912-36.176,9.808,6.089,10.166,16.514,4.059,31.514a48.884,48.884,0,0,1-24.114,23.875c-21.152,9.3-27.858-4.562-23.158-23.875-.819,15.776,3.322,24.031,13.456,23.211,22.211-2.03,42.022-34.1,28.751-48.541-16.139-14.177-41.2.889-57,22.9-7.095,10.745-9.17,21.49-8.961,32.235-16.891-16.1-23.761-34.818-12.77-58.218Z" fill="#c69fca" fill-rule="evenodd"/>
        <path id="Path_9" data-name="Path 9" d="M2937.861,1754.523a6.1,6.1,0,1,1-6.1,6.1,6.1,6.1,0,0,1,6.1-6.1Z" fill="#c69fca" fill-rule="evenodd"/>
        <path id="Path_10" data-name="Path 10" d="M3010.921,1789.123c-59.185,63.636-124.72,22.827-92.1-33.854-42.137,59.841,26.768,110.129,92.1,33.854Z" fill="#e7daeb" fill-rule="evenodd"/>
      </g>
    </g>
    <g id="Group_8" data-name="Group 8">
      <text id="PER_SESSION" data-name="PER SESSION" transform="translate(3031.22 1896.424)" fill="#404041" font-size="47.452" font-family="Calibri-Bold, Calibri" font-weight="700" letter-spacing="-0.04em"><tspan x="-116.414" y="0">PER SESSION</tspan></text>
      <g id="Group_7" data-name="Group 7">
        <g id="Group_6" data-name="Group 6">
          <path id="Path_11" data-name="Path 11" d="M3177.938,1872.606a.655.655,0,0,0-.483-.19h-3.588a7.269,7.269,0,0,0-1.343-3.021h4.889a.645.645,0,0,0,.671-.671v-2.141a.647.647,0,0,0-.671-.672h-17.459a.647.647,0,0,0-.671.672v2.791a.681.681,0,0,0,.671.671H3163q4.426,0,5.623,2.371h-8.666a.647.647,0,0,0-.671.671v2.141a.648.648,0,0,0,.671.672h8.961a4.106,4.106,0,0,1-2.151,2.623,9.474,9.474,0,0,1-4.459.9h-2.351a.681.681,0,0,0-.671.671v2.665a.629.629,0,0,0,.189.462q4.029,4.28,10.45,11.981a.615.615,0,0,0,.525.252h4.091a.609.609,0,0,0,.609-.378.575.575,0,0,0-.084-.713q-6.127-7.514-9.632-11.247a10.649,10.649,0,0,0,5.792-2.308,7.844,7.844,0,0,0,2.707-4.91h3.525a.647.647,0,0,0,.672-.671v-2.141A.65.65,0,0,0,3177.938,1872.606Z" fill="#404041"/>
        </g>
        <text id="_900" data-name="900" transform="translate(3218.748 1894.483)" fill="#404041" font-size="51.105" font-family="Calibri-Bold, Calibri" font-weight="700" letter-spacing="-0.04em"><tspan x="-36.808" y="0">900</tspan></text>
      </g>
      <line id="Line_1" data-name="Line 1" x2="105.978" y2="51.99" transform="translate(3154.595 1852.677)" fill="none" stroke="#be1e2d" stroke-miterlimit="10" stroke-width="3"/>
    </g>
    <g id="Group_11" data-name="Group 11">
      <text id="ONLY_AT" data-name="ONLY AT" transform="translate(2990.693 1971.854)" fill="#404041" font-size="47.452" font-family="Calibri-Bold, Calibri" font-weight="700" letter-spacing="-0.04em"><tspan x="-75.886" y="0">ONLY AT</tspan></text>
      <g id="Group_10" data-name="Group 10">
        <g id="Group_9" data-name="Group 9">
          <path id="Path_12" data-name="Path 12" d="M3106.837,1940.512a.917.917,0,0,0-.676-.265h-5.032a10.172,10.172,0,0,0-1.883-4.236h6.856a.905.905,0,0,0,.941-.942v-3a.905.905,0,0,0-.941-.942h-24.483a.905.905,0,0,0-.941.941v3.915a.953.953,0,0,0,.941.941h4.267q6.208,0,7.886,3.325h-12.153a.905.905,0,0,0-.941.941v3a.907.907,0,0,0,.941.942h12.565a5.752,5.752,0,0,1-3.016,3.678,13.293,13.293,0,0,1-6.253,1.265h-3.3a.955.955,0,0,0-.941.942v3.738a.873.873,0,0,0,.264.646q5.651,6,14.654,16.8a.868.868,0,0,0,.736.354h5.738a.854.854,0,0,0,.854-.531.8.8,0,0,0-.118-1q-8.592-10.534-13.506-15.772a14.926,14.926,0,0,0,8.121-3.237,11,11,0,0,0,3.8-6.886h4.944a.909.909,0,0,0,.942-.942v-3A.915.915,0,0,0,3106.837,1940.512Z" fill="#f4c603"/>
        </g>
        <text id="_450" data-name="450" transform="translate(3164.067 1971.192)" fill="#f4c603" font-size="71.666" font-family="Calibri-Bold, Calibri" font-weight="700" letter-spacing="-0.04em"><tspan x="-51.618" y="0">450</tspan></text>
      </g>
    </g>
  </g>
</svg>
