<svg xmlns="http://www.w3.org/2000/svg" width="69.828" height="69.827" viewBox="0 0 69.828 69.827">
  <g id="Group_5" data-name="Group 5" transform="translate(-1238.607 -1000.608)">
    <path id="Path_10" data-name="Path 10" d="M1307.524,1035.522a34,34,0,1,1-34-34A34,34,0,0,1,1307.524,1035.522Z" fill="none" stroke="#000" stroke-miterlimit="10" stroke-width="1.823"/>
    <path id="Path_11" data-name="Path 11" d="M1286.071,1017.454l-3.475-3.474h-20.838a4.842,4.842,0,0,0-4.84,4.841v33.4a4.84,4.84,0,0,0,4.84,4.841h23.527a4.84,4.84,0,0,0,4.842-4.841v-31.1Zm-23.416,35.591-2.184-2.254,1.248-1.283,1.006.972,1.941-1.908,1.284,1.283Zm0-6.436-2.184-2.253,1.248-1.284,1.006.972,1.941-1.907,1.284,1.282Zm0-6.436-2.184-2.253,1.248-1.283,1.006.971,1.941-1.907,1.284,1.282Zm6.294-10h-4.756v-3.91h-3.909v-4.755h3.909V1017.6h4.756v3.909h3.909v4.755h-3.909Zm18.669,21.413h-17.946v-1.561h17.946Zm0-6.436h-17.946v-1.561h17.946Zm0-6.436h-17.946v-1.56h17.946Zm-3.477-16.435a2.028,2.028,0,0,1-2.028-2.028v-4.15l6.179,6.178Z"/>
  </g>
</svg>
