<svg xmlns="http://www.w3.org/2000/svg" width="73.711" height="71.828" viewBox="0 0 73.711 71.828">
  <g id="Group_16" data-name="Group 16" transform="translate(-161.979 -3691.093)">
    <g id="Group_15" data-name="Group 15">
      <path id="Path_60" data-name="Path 60" d="M184.807,3738.9H176.76v-27.782h-6.976v-6.143l15.023-1.239Z"/>
      <path id="Path_61" data-name="Path 61" d="M215.355,3726.161q0,6.215-3.31,9.726a12.682,12.682,0,0,1-17.521,0q-3.309-3.513-3.31-9.726v-9.189q0-6.214,3.286-9.725a12.668,12.668,0,0,1,17.522.012q3.333,3.522,3.333,9.713Zm-8.023-9.736a8.9,8.9,0,0,0-1.083-4.834,3.389,3.389,0,0,0-2.988-1.666,3.323,3.323,0,0,0-2.976,1.666,9.141,9.141,0,0,0-1.047,4.834v10.236a9.15,9.15,0,0,0,1.059,4.892,3.372,3.372,0,0,0,3.011,1.656,3.334,3.334,0,0,0,2.965-1.656,9.16,9.16,0,0,0,1.059-4.892Z"/>
      <path id="Path_62" data-name="Path 62" d="M195.883,3748.475l12.6,14.446c.1-.158.187-.29.259-.429,1.4-2.683,2.89-5.319,4.429-7.927a96.966,96.966,0,0,1,6.947-10.248,58.5,58.5,0,0,1,14.693-13.239,4.015,4.015,0,0,0,.65-.538c.163-.163.316-.383.178-.62s-.4-.208-.612-.163a11.756,11.756,0,0,0-1.473.358,22.962,22.962,0,0,0-3.7,1.766,51.9,51.9,0,0,0-9.043,6.526c-3.088,2.729-5.984,5.658-8.8,8.657-1.344,1.43-2.565,2.973-3.843,4.465-.049.057-.1.113-.164.185l-5.071-7.973c-2.351,1.579-4.682,3.147-7.042,4.734"/>
      <path id="Path_63" data-name="Path 63" d="M195.883,3748.475c2.36-1.587,4.691-3.155,7.042-4.734l5.071,7.973c.065-.072.115-.128.164-.185,1.278-1.492,2.5-3.035,3.843-4.465,2.82-3,5.716-5.928,8.8-8.657a51.9,51.9,0,0,1,9.043-6.526,22.962,22.962,0,0,1,3.7-1.766,11.756,11.756,0,0,1,1.473-.358c.217-.045.479-.066.612.163s-.015.457-.178.62a4.015,4.015,0,0,1-.65.538,58.5,58.5,0,0,0-14.693,13.239,96.966,96.966,0,0,0-6.947,10.248c-1.539,2.608-3.025,5.244-4.429,7.927-.072.139-.162.271-.259.429l-12.6-14.446"/>
      <path id="Path_64" data-name="Path 64" d="M197.374,3754.8h-31.5v-59.807h54.787v39.493l3.9-2.88v-40.51h-62.58v67.6h37.993Z"/>
    </g>
  </g>
</svg>
